<svg xmlns="http://www.w3.org/2000/svg" width="112.658" height="100.009" viewBox="0 0 112.658 100.009"><defs><style>.a{fill:#227b82;}</style></defs><g transform="translate(-1165 -526)"><path class="a" d="M28.74,23.4a1.28,1.28,0,1,0,0-2.56H8.6a1.28,1.28,0,1,0,0,2.56H11.54V61.169H8.6a1.28,1.28,0,0,0,0,2.56H28.738a1.28,1.28,0,0,0,0-2.56H25.8V23.4Zm-5.5,37.776H14.105V23.4h9.136Z" transform="translate(1171.301 547.065)"/><path class="a" d="M53.228,23.4a1.28,1.28,0,1,0,0-2.56H33.1a1.28,1.28,0,1,0,0,2.56h2.939V61.169H33.1a1.28,1.28,0,0,0,0,2.56H53.228a1.28,1.28,0,1,0,0-2.56H50.288V23.4Zm-5.5,37.776H38.595V23.4h9.133Z" transform="translate(1209.523 547.065)"/><path class="a" d="M6.466,42.12h93.785a1.28,1.28,0,0,0,0-2.56H6.466a1.28,1.28,0,1,0,0,2.56Z" transform="translate(1167.971 576.284)"/><path class="a" d="M113.378,42.53H3.28a1.28,1.28,0,0,0,0,2.56h110.1a1.28,1.28,0,1,0,0-2.56Z" transform="translate(1163 580.918)"/><path class="a" d="M34.588,37.747a1.283,1.283,0,0,0,1.767-.389,8.478,8.478,0,0,0-5.891-12.971V21.345a1.28,1.28,0,0,0-2.56,0V24.4c-.184.031-.374.028-.558.067A8.5,8.5,0,0,0,27.9,41.181V53.015a5.841,5.841,0,0,1-1.92-.771,5.957,5.957,0,0,1-1.815-8.214,1.278,1.278,0,1,0-2.153-1.377,8.519,8.519,0,0,0,2.6,11.747,8.353,8.353,0,0,0,3.3,1.229v2.622a1.28,1.28,0,0,0,2.56,0V55.57a8.47,8.47,0,0,0-.005-16.753V26.991a5.841,5.841,0,0,1,1.92.771A5.954,5.954,0,0,1,34.2,35.973,1.284,1.284,0,0,0,34.588,37.747Zm-8.6.049a5.945,5.945,0,0,1,1.92-10.82V38.543A5.793,5.793,0,0,1,25.985,37.8Zm6.4,4.424a5.946,5.946,0,0,1-1.915,10.82V41.47A5.849,5.849,0,0,1,32.381,42.22Z" transform="translate(1192.143 545.864)"/><path class="a" d="M7.157,39.626a1.278,1.278,0,0,0,1.206,1.705H95.575a.127.127,0,0,1,.054,0,1.284,1.284,0,0,0,1.28-1.28,1.26,1.26,0,0,0-.225-.725A11.357,11.357,0,0,1,97.69,30.1a1.283,1.283,0,0,0-.625-1.833A245.172,245.172,0,0,1,52.683,4.687a1.289,1.289,0,0,0-1.431,0A245.151,245.151,0,0,1,6.873,28.266a1.288,1.288,0,0,0-.73.773A1.273,1.273,0,0,0,6.25,30.1,11.366,11.366,0,0,1,7.157,39.626ZM51.972,7.291A247.439,247.439,0,0,0,94.807,30.109a13.922,13.922,0,0,0-.919,8.662H10.053a13.9,13.9,0,0,0-.922-8.662A247.764,247.764,0,0,0,51.972,7.291Z" transform="translate(1169.357 521.53)"/></g></svg>