<svg xmlns="http://www.w3.org/2000/svg" width="84.748" height="100" viewBox="0 0 84.748 100"><defs><style>.a{fill:#227b82;}</style></defs><path class="a" d="M58.951,65.954,71.2,57.046a1.538,1.538,0,0,0,.636-1.24v-5.73a22.285,22.285,0,0,0,2.306-6.15c1.466-.861,2.655-3.075,3.772-7.063s1.107-6.643-.123-8.2a3.331,3.331,0,0,0-1.189-.953c1.363-7.268.687-12.66-2.05-16.043a8.867,8.867,0,0,0-5.125-3.178C67.746,4.193,61.78.236,56.163,1.405c-4.951,1.025-15.52-.154-15.622-.164a1.538,1.538,0,0,0-1.7,1.425,5.925,5.925,0,0,0,1.025,3.69C32.145,12.271,33,22.911,33.9,27.811a3.372,3.372,0,0,0-1.107.953c-1.23,1.558-1.23,4.141-.082,8.108s2.317,6.2,3.772,7.063a22.326,22.326,0,0,0,2.306,6.15v5.72a1.538,1.538,0,0,0,.636,1.24l12.25,8.908-4.1,5.218a1.538,1.538,0,0,0-.092,1.763l3.075,5.013L47.962,95.456a1.538,1.538,0,0,0,1.517,1.763h11.6A1.538,1.538,0,0,0,62.6,95.456L60.017,77.938l3.075-5.013A1.538,1.538,0,0,0,63,71.162ZM41.812,55.017V49.676a1.538,1.538,0,0,0-.205-.759A18.831,18.831,0,0,1,39.3,42.583,1.425,1.425,0,0,0,37.988,41.3s-1.025-.543-2.378-5.248c-1.179-4.162-.564-5.259-.431-5.433s.144-.113.461-.154a1.63,1.63,0,0,0,1.21-.584,1.538,1.538,0,0,0,.3-1.312c-.82-3.506-2.829-15.376,5.781-20.614a1.538,1.538,0,0,0,.164-2.511,4.357,4.357,0,0,1-.789-.953c3.506.308,10.4.738,14.423-.092,4.572-.943,9.318,2.86,9.984,5.843a1.558,1.558,0,0,0,1.476,1.2,5.607,5.607,0,0,1,3.977,2.224c1.538,1.968,2.973,6.15,1.025,14.915a1.538,1.538,0,0,0,1.568,1.866c.4,0,.482.092.523.144s.759,1.251-.431,5.443c-1.261,4.654-2.286,5.248-2.194,5.259a1.538,1.538,0,0,0-1.394,1.3,18.831,18.831,0,0,1-2.306,6.335,1.538,1.538,0,0,0-.205.759v5.33L55.845,64.4a1.527,1.527,0,0,0-.543.718,1.538,1.538,0,0,0-.543-.718ZM59.238,94.134H51.314l2.409-16.258a1.538,1.538,0,0,0-.215-1.025l-2.85-4.582L55.076,66.6a1.558,1.558,0,0,0,.236-.431,1.548,1.548,0,0,0,.236.431l4.418,5.617L57.116,76.8a1.538,1.538,0,0,0-.215,1.025ZM39.229,59.855A1.538,1.538,0,0,0,37,58.769,146.586,146.586,0,0,0,12.423,74.8h0A10.446,10.446,0,0,0,8.63,83v12.67a1.538,1.538,0,0,0,1.538,1.538H44.241a1.538,1.538,0,0,0,1.517-1.814ZM11.705,94.134V83a7.381,7.381,0,0,1,2.675-5.73h0A142.209,142.209,0,0,1,36.584,62.5L42.4,94.165ZM87.243,74.073a45.512,45.512,0,0,0-4.787-2.194l-.666-.256a9.39,9.39,0,0,1-2.306-1.281.63.63,0,0,1-.277-.379c0-.041.123-.215.4-.338a2.758,2.758,0,0,1,1.025-.174,10.938,10.938,0,0,1,5.474,1.087,3.506,3.506,0,0,0,2.962.256,3.383,3.383,0,0,0,1.773-2.265c.277-.841.513-1.681.748-2.532l.277-.974a3.331,3.331,0,0,0-1.989-4.193,18.81,18.81,0,0,0-4.654-1.4h0c0-3.393-.646-4.818-4.521-4.818H79.125c-2.388.072-3.526,1.22-3.6,3.619V60.07l-.174.062c-4.838,1.743-7.627,5.248-7.914,10.107-.256,4.2,1.7,7.586,5.812,10.046a30.294,30.294,0,0,0,4.4,2.05c.6.246,1.2.482,1.8.748a7.032,7.032,0,0,1,1.661.964.826.826,0,0,1-.195,1.548,5.125,5.125,0,0,1-2.686.338,14.761,14.761,0,0,1-5.125-1.517,4.039,4.039,0,0,0-1.917-.564c-1.394,0-2.368.871-2.911,2.593-.328,1.025-.615,2.05-.892,3.075-.656,2.4,0,3.762,2.214,4.849a20.235,20.235,0,0,0,5.5,1.64V97.7a3.342,3.342,0,0,0,3.414,3.5h3.034A3.27,3.27,0,0,0,84.9,97.763v-2.4a12.035,12.035,0,0,0,5.9-3.916,11.276,11.276,0,0,0,2.388-9.226A11.891,11.891,0,0,0,87.243,74.073Zm1.24,15.458a9.052,9.052,0,0,1-4.695,3,2.327,2.327,0,0,0-1.917,2.552v2.7a.585.585,0,0,1-.062.318.564.564,0,0,1-.287.061H78.612c-.277,0-.39,0-.39-.451v-2.05a3.27,3.27,0,0,0-.277-1.7,1.527,1.527,0,0,0-.41-.472,3.219,3.219,0,0,0-1.548-.472A17.908,17.908,0,0,1,71,91.592a3.423,3.423,0,0,1-.728-.431h0a2.183,2.183,0,0,1,.133-.851c.277-1.025.554-2.05.861-3a1.409,1.409,0,0,1,.133-.379l.338.164a17.765,17.765,0,0,0,6.15,1.835,8.2,8.2,0,0,0,4.3-.574,3.875,3.875,0,0,0,.923-6.735,10,10,0,0,0-2.378-1.4c-.625-.277-1.261-.533-1.9-.789a27.882,27.882,0,0,1-3.957-1.835c-3.137-1.876-4.51-4.172-4.326-7.176.226-3.639,2.153-6.068,5.894-7.432,1.784-.646,2.194-1.22,2.2-3.075v-1.62a3.2,3.2,0,0,1,.051-.574,2.942,2.942,0,0,1,.523-.051h1.445a6.488,6.488,0,0,1,1.353.092,10.568,10.568,0,0,1,.092,1.671c0,2.112.554,2.737,2.645,3.075a15.736,15.736,0,0,1,3.906,1.128c.379.164.359.246.277.523l-.277,1.025c-.226.81-.461,1.62-.738,2.481a.926.926,0,0,1-.1.277,2.325,2.325,0,0,1-.349-.144,14.054,14.054,0,0,0-6.981-1.384,5.658,5.658,0,0,0-2.05.431,3.526,3.526,0,0,0-2.214,2.747,3.485,3.485,0,0,0,1.384,3.167,12.3,12.3,0,0,0,3.075,1.722l.615.256a42.494,42.494,0,0,1,4.469,2.05,8.826,8.826,0,0,1,4.48,6.038h0A8.2,8.2,0,0,1,88.484,89.531Z" transform="translate(-8.629 -1.198)"/></svg>