<svg xmlns="http://www.w3.org/2000/svg" width="95.014" height="100" viewBox="0 0 95.014 100"><defs><style>.a{fill:#227b82;}</style></defs><path class="a" d="M79.224,85.319a7.342,7.342,0,1,1,0,14.681,7.342,7.342,0,0,1,0-14.681Zm-33.8-60.942H28.255v7.756H45.429ZM43.213,34.626h-9.7v9.7h9.7Zm-12.188,0h-9.7v9.7h9.7Zm-5.263-2.493V21.884H45.429V0H71.191V12.188H87.535V32.133h7.479V71.468H21.33v6.925a2.806,2.806,0,0,0,2.77,2.77H89.474a1.247,1.247,0,0,1,0,2.493H24.1c-3.878,0-5.263-2.216-5.263-5.263V25.208a3.039,3.039,0,0,0-3.047-3.047H11.08a5.4,5.4,0,0,1-5.54,4.432A5.556,5.556,0,0,1,0,21.053a5.622,5.622,0,0,1,5.54-5.817,5.634,5.634,0,0,1,5.54,4.709h4.709c3.324,0,5.54,1.385,5.54,5.263v6.925ZM68.7,2.493H47.922v29.64H68.7Zm-.831,32.133h-9.7v9.7h9.7Zm-12.188,0H45.706v9.7h9.972Zm29.363-2.493V14.681H71.191V32.133Zm-2.493,2.493v9.7h9.972v-9.7Zm-2.493,0h-9.7v9.7h9.7ZM31.025,46.814h-9.7v9.972h9.7Zm12.188,0h-9.7v9.972h9.7Zm24.654,0h-9.7v9.972h9.7ZM55.679,56.787V46.814H45.706v9.972Zm24.377-9.972h-9.7v9.972h9.7Zm12.465,9.972V46.814H82.548v9.972ZM31.025,59h-9.7v9.972h9.7Zm12.188,0h-9.7v9.972h9.7Zm24.654,0h-9.7v9.972h9.7ZM55.679,59H45.706v9.972h9.972Zm24.377,0h-9.7v9.972h9.7Zm12.465,0H82.548v9.972h9.972ZM5.54,17.729a3.144,3.144,0,0,0-3.047,3.324A3.074,3.074,0,0,0,5.54,24.1a3.144,3.144,0,0,0,3.324-3.047A3.2,3.2,0,0,0,5.54,17.729Zm28.809,67.59A7.342,7.342,0,1,1,26.87,92.8,7.448,7.448,0,0,1,34.349,85.319Zm0,2.493A4.965,4.965,0,0,0,29.363,92.8a4.994,4.994,0,0,0,9.972,0A4.965,4.965,0,0,0,34.349,87.812Zm44.875,0A4.986,4.986,0,1,0,84.211,92.8,4.965,4.965,0,0,0,79.224,87.812Z"/></svg>