<svg xmlns="http://www.w3.org/2000/svg" width="102.003" height="100.244" viewBox="0 0 102.003 100.244"><defs><style>.a{fill:#227b82;}</style></defs><g transform="translate(-5313.8 -620)"><path class="a" d="M88.438,73.335a3.637,3.637,0,0,0-3.015-.879l-2.136-2.136A21.124,21.124,0,0,0,80.65,44.066,24.9,24.9,0,0,0,76.5,40.8V23.716a1.187,1.187,0,0,0-1.256-1.256H62.058a6.719,6.719,0,0,0-6.532-4.648H52.008A8.76,8.76,0,0,0,43.466,10.4a8.566,8.566,0,0,0-8.542,7.412H31.407a6.719,6.719,0,0,0-6.532,4.648H11.056A1.187,1.187,0,0,0,9.8,23.716v85.673a1.187,1.187,0,0,0,1.256,1.256H75.248a1.187,1.187,0,0,0,1.256-1.256V76.727c.251-.126.628-.377.879-.5l2.136,2.136a3.139,3.139,0,0,0,.879,3.015l21.607,21.607a5.511,5.511,0,0,0,3.894,1.633,5.422,5.422,0,0,0,3.894-1.633l.377-.377a5.511,5.511,0,0,0,1.633-3.894,5.223,5.223,0,0,0-1.633-3.894Zm-9.421-1.507a18.3,18.3,0,1,1,0-25.878A18.272,18.272,0,0,1,79.017,71.828ZM73.992,39.669a24.536,24.536,0,0,0-5.779-1.507V24.972h5.779ZM27.01,23.967c0-1.884,1.884-3.517,4.271-3.517h4.648a1.187,1.187,0,0,0,1.256-1.256,6.155,6.155,0,0,1,12.311,0,1.187,1.187,0,0,0,1.256,1.256H55.4c2.387,0,4.271,1.633,4.271,3.517v6.407H27.01Zm34.043,8.919a1.187,1.187,0,0,0,1.256-1.256V24.972h3.517V38.036a21.358,21.358,0,0,0-14.446,6.03A20.793,20.793,0,0,0,65.7,79.616v7.412H54.646a1.187,1.187,0,0,0-1.256,1.256V99.339H20.98V24.972H24.5V31.5a1.187,1.187,0,0,0,1.256,1.256h35.3Zm2.764,56.78L55.9,97.58V89.666Zm10.175,18.592H12.312V24.972h6.155v75.623a1.187,1.187,0,0,0,1.256,1.256h34.8a.755.755,0,0,0,.5-.126c.126-.126.251-.126.377-.251L67.711,89.163c.126-.126.126-.251.251-.377v-.126a.461.461,0,0,1,.126-.377V79.365a23.994,23.994,0,0,0,5.9-1.507Zm6.783-34.671c.377-.377.754-.879,1.131-1.256l1.507,1.507-2.387,2.387-1.507-1.507A5.106,5.106,0,0,0,80.775,73.587Zm27.511,27.259-.377.377a2.957,2.957,0,0,1-4.145,0L82.157,79.616a.764.764,0,0,1,0-1l1.759-1.759,1.759-1.759a.952.952,0,0,1,.5-.251.5.5,0,0,1,.5.251L108.286,96.7a2.964,2.964,0,0,1,.879,2.01A3.564,3.564,0,0,1,108.286,100.846Z" transform="translate(5304 609.6)"/><path class="a" d="M48.777,50.677a1.214,1.214,0,0,0,0,1.759l7.537,7.788a1.357,1.357,0,0,0,.879.377,1.14,1.14,0,0,0,.879-.377,1.214,1.214,0,0,0,0-1.759l-7.537-7.788A1.212,1.212,0,0,0,48.777,50.677Z" transform="translate(5313.889 619.822)"/><path class="a" d="M49.536,54.377a1.244,1.244,0,0,0-1.759,1.759L51.545,59.9a1.214,1.214,0,0,0,1.759,0,1.214,1.214,0,0,0,0-1.759Z" transform="translate(5313.633 620.77)"/><ellipse class="a" cx="2.01" cy="2.01" rx="2.01" ry="2.01" transform="translate(5345.331 626.783)"/></g></svg>