<svg xmlns="http://www.w3.org/2000/svg" width="24" height="24" viewBox="0 0 24 24"><defs><style>.a,.b,.c{fill:none;}.b,.c{stroke:#def8fb;stroke-width:1.5px;}.c{stroke-linecap:round;}.d{stroke:none;}</style></defs><g transform="translate(-5161 113)"><rect class="a" width="24" height="24" transform="translate(5161 -113)"/><g transform="translate(0.833 1)"><g class="b" transform="translate(5166 -110)"><path class="d" d="M6,0h5.333a2,2,0,0,1,2,2V14a2,2,0,0,1-2,2H2a2,2,0,0,1-2-2V6A6,6,0,0,1,6,0Z"/><path class="a" d="M6-.75h5.333A2.75,2.75,0,0,1,14.083,2V14a2.75,2.75,0,0,1-2.75,2.75H2A2.75,2.75,0,0,1-.75,14V6A6.75,6.75,0,0,1,6-.75Z"/></g><line class="c" x2="6.222" transform="translate(5169.111 -104.222)"/><line class="c" x2="4.444" transform="translate(5169.111 -101.556)"/></g></g></svg>