<svg xmlns="http://www.w3.org/2000/svg" width="24" height="24" viewBox="0 0 24 24"><defs><style>.a,.b,.c{fill:none;}.b,.c{stroke:#f2feff;stroke-width:1.5px;}.c{stroke-linecap:round;}.d{stroke:none;}</style></defs><rect class="a" width="24" height="24"/><g transform="translate(5.833 4)"><g class="b"><path class="d" d="M6,0h5.333a2,2,0,0,1,2,2V14a2,2,0,0,1-2,2H2a2,2,0,0,1-2-2V6A6,6,0,0,1,6,0Z"/><path class="a" d="M6-.75h5.333A2.75,2.75,0,0,1,14.083,2V14a2.75,2.75,0,0,1-2.75,2.75H2A2.75,2.75,0,0,1-.75,14V6A6.75,6.75,0,0,1,6-.75Z"/></g><line class="c" x2="6.222" transform="translate(3.111 5.778)"/><line class="c" x2="4.444" transform="translate(3.111 8.444)"/></g></svg>