<svg xmlns="http://www.w3.org/2000/svg" width="24" height="24" viewBox="0 0 24 24">
  <g id="Group_1054" data-name="Group 1054" transform="translate(-1081 -1335)">
    <g id="Group_1053" data-name="Group 1053" transform="translate(1084 1339)">
      <g id="Group_1052" data-name="Group 1052">
        <path id="Path_1133" data-name="Path 1133" d="M10.875,14.909h3a.387.387,0,0,0,0-.773h-3a.387.387,0,0,0,0,.773Zm0-4.636h5.25a.387.387,0,0,0,0-.773h-5.25a.387.387,0,0,0,0,.773Zm0-2.318h5.25a.387.387,0,0,0,0-.773h-5.25a.387.387,0,0,0,0,.773Zm0,4.636h5.25a.387.387,0,0,0,0-.773h-5.25a.387.387,0,0,0,0,.773ZM16.125,1H1.875A1.906,1.906,0,0,0,0,2.932V16.068A1.906,1.906,0,0,0,1.875,18h14.25A1.906,1.906,0,0,0,18,16.068V2.932A1.906,1.906,0,0,0,16.125,1ZM17.25,16.068a1.144,1.144,0,0,1-1.125,1.159H1.875A1.144,1.144,0,0,1,.75,16.068V4.864h16.5Zm0-11.977H.75V2.932A1.144,1.144,0,0,1,1.875,1.773h14.25A1.144,1.144,0,0,1,17.25,2.932ZM1.875,14.909h7.5a.381.381,0,0,0,.375-.386A2.094,2.094,0,0,0,8.2,12.478l-1.126-.29-.047-.194a2.593,2.593,0,0,0,.586-1.2.723.723,0,0,0,.375-.552l.081-.672A.736.736,0,0,0,7.9,9.009a.746.746,0,0,0-.136-.124l.019-.41.068-.07A1.006,1.006,0,0,0,7.9,7.088a1.551,1.551,0,0,0-1.413-.679,2.317,2.317,0,0,0-1.3.338c-1.544.056-1.725.913-1.725,1.56,0,.128.023.366.044.566a.711.711,0,0,0-.151.133.734.734,0,0,0-.169.567l.081.672a.7.7,0,0,0,.415.563,2.6,2.6,0,0,0,.554,1.153l-.055.227-1.126.29A2.094,2.094,0,0,0,1.5,14.523a.391.391,0,0,0,.11.274A.372.372,0,0,0,1.875,14.909Zm1.357-1.682,1.344-.346a.382.382,0,0,0,.273-.281l.16-.659a.393.393,0,0,0-.108-.376,1.77,1.77,0,0,1-.517-1.106.348.348,0,0,0-.378-.311l-.1-.615A.369.369,0,0,0,4.19,9.4a.392.392,0,0,0,.091-.3c-.028-.233-.074-.655-.074-.791,0-.4,0-.778,1.1-.79a.368.368,0,0,0,.214-.072,1.571,1.571,0,0,1,.965-.264.852.852,0,0,1,.785.329c.152.24.09.308.048.355l-.163.168a.391.391,0,0,0-.109.254L7,9.129a.313.313,0,0,0,.077.255.293.293,0,0,0,.245.093l-.048.628a.379.379,0,0,0-.373.355,1.786,1.786,0,0,1-.542,1.127.394.394,0,0,0-.113.381L6.4,12.6a.38.38,0,0,0,.273.281l1.345.346a1.311,1.311,0,0,1,.925.909H2.3A1.315,1.315,0,0,1,3.232,13.227ZM3.375,2.545a.387.387,0,1,0,.375.386A.381.381,0,0,0,3.375,2.545Zm1.5,0a.387.387,0,1,0,.375.386A.381.381,0,0,0,4.875,2.545Zm-3,0a.387.387,0,1,0,.375.386A.381.381,0,0,0,1.875,2.545Z" transform="translate(0 -1)" fill="#b1e4e8"/>
      </g>
    </g>
    <rect id="Rectangle_293" data-name="Rectangle 293" width="24" height="24" transform="translate(1081 1335)" fill="none"/>
  </g>
</svg>
