<svg xmlns="http://www.w3.org/2000/svg" width="16.566" height="20.484" viewBox="0 0 16.566 20.484"><defs><style>.a,.b{fill:none;}.b{stroke-linejoin:round;}.c,.d{stroke:none;}.d{fill:#707070;}</style></defs><g transform="translate(-5096.386 -120.437)"><g class="a" transform="translate(5084.139 110.938)"><path class="c" d="M14.18,22.471a1.467,1.467,0,0,0,1.057.442H25.824a1.467,1.467,0,0,0,1.057-.442,1.487,1.487,0,0,0-.058-2.152l-.48-.423a1.484,1.484,0,0,1-.48-1.1V16.457A5.382,5.382,0,0,0,20.675,11h-.288A5.37,5.37,0,0,0,15.2,16.457V18.8a1.453,1.453,0,0,1-.48,1.1l-.48.423A1.487,1.487,0,0,0,14.18,22.471Z"/><path class="d" d="M 25.82440376281738 22.91272926330566 C 26.22790336608887 22.91272926330566 26.59297370910645 22.75901031494141 26.88119316101074 22.47080039978027 C 27.47684288024902 21.87516975402832 27.45763397216797 20.89525032043457 26.82355308532715 20.31881904602051 L 26.34319305419922 19.89612007141113 C 26.03576278686523 19.60790061950684 25.86282348632813 19.22361946105957 25.86282348632813 18.8009090423584 C 25.86282348632813 18.8009090423584 25.86282348632813 17.72492027282715 25.86282348632813 16.45678901672363 C 25.86282348632813 13.95895957946777 23.94138336181641 10.99998950958252 20.67492294311523 10.99998950958252 L 20.38670349121094 10.99998950958252 C 17.12024307250977 10.99998950958252 15.19879341125488 13.9397497177124 15.19879341125488 16.45678901672363 C 15.19879341125488 17.72492027282715 15.19879341125488 18.8009090423584 15.19879341125488 18.8009090423584 C 15.19879341125488 19.22361946105957 15.0258731842041 19.62711906433105 14.71843338012695 19.89612007141113 L 14.23807334899902 20.31881904602051 C 13.60399341583252 20.89525032043457 13.58478355407715 21.87516975402832 14.18043327331543 22.47080039978027 C 14.46865367889404 22.75901031494141 14.8337230682373 22.91272926330566 15.23722362518311 22.91272926330566 L 19.52205276489258 22.91272926330566 L 21.53957366943359 22.91272926330566 L 25.82440376281738 22.91272926330566 M 25.82440376281738 24.41272926330566 L 21.53957366943359 24.41272926330566 L 19.52205276489258 24.41272926330566 L 15.23722362518311 24.41272926330566 C 14.44008350372314 24.41272926330566 13.6880931854248 24.09976005554199 13.11979293823242 23.53148078918457 C 12.54677295684814 22.9584789276123 12.22919368743896 22.16447067260742 12.24850368499756 21.35305023193359 C 12.26786327362061 20.53931999206543 12.62526321411133 19.75781059265137 13.2290735244751 19.20890045166016 L 13.2380428314209 19.20074081420898 L 13.24715328216553 19.19272994995117 L 13.69879341125488 18.79530334472656 L 13.69879341125488 16.45678901672363 C 13.69879341125488 14.8011999130249 14.32726287841797 13.10941982269287 15.42305278778076 11.81521987915039 C 16.68717384338379 10.32221984863281 18.4499626159668 9.49998950958252 20.38670349121094 9.49998950958252 L 20.67492294311523 9.49998950958252 C 22.61062240600586 9.49998950958252 24.37380409240723 10.32524013519287 25.63966369628906 11.82371997833252 C 26.7347526550293 13.12004947662354 27.36282348632813 14.80873966217041 27.36282348632813 16.45678901672363 L 27.36282348632813 18.7952938079834 L 27.81447410583496 19.19272994995117 L 27.82358360290527 19.20074081420898 L 27.83255386352539 19.20890045166016 C 28.43636322021484 19.75781059265137 28.79376411437988 20.53931999206543 28.81312370300293 21.35305023193359 C 28.83243370056152 22.16447067260742 28.51485252380371 22.9584789276123 27.94183349609375 23.53148078918457 C 27.37353324890137 24.09976005554199 26.62154388427734 24.41272926330566 25.82440376281738 24.41272926330566 Z"/></g><g class="b" transform="translate(5064.463 60.225)"><path class="c" d="M40.2,79.2a1.7,1.7,0,0,0,1.7-1.7H38.5A1.7,1.7,0,0,0,40.2,79.2Z"/><path class="d" d="M 40.19654846191406 79.19651794433594 C 41.1336784362793 79.19651794433594 41.89308929443359 78.43712615966797 41.89308929443359 77.5 L 38.5 77.5 C 38.5 78.43712615966797 39.25940704345703 79.19651794433594 40.19654846191406 79.19651794433594 M 40.19654846191406 80.69651794433594 C 38.43396759033203 80.69651794433594 37 79.26256561279297 37 77.5 C 37 76.67156982421875 37.67156982421875 76 38.5 76 L 41.89308929443359 76 C 42.72151947021484 76 43.39308929443359 76.67156982421875 43.39308929443359 77.5 C 43.39308929443359 79.26256561279297 41.95912933349609 80.69651794433594 40.19654846191406 80.69651794433594 Z"/></g></g></svg>