<svg xmlns="http://www.w3.org/2000/svg" width="28" height="28" viewBox="0 0 28 28"><defs><style>.a{fill:none;}.b{fill:#f88d4a;}</style></defs><g transform="translate(-680 -476)"><rect class="a" width="28" height="28" transform="translate(680 476)"/><path class="b" d="M32.513,25.644l-1.766,5.683a.256.256,0,0,1-.269.192h-6.8a.267.267,0,0,1-.269-.211l-1.766-5.683a.321.321,0,0,1,.019-.23.244.244,0,0,1,.173-.134L27,23.955a.164.164,0,0,1,.134,0L32.3,25.26a.306.306,0,0,1,.173.134A.284.284,0,0,1,32.513,25.644ZM27.08,23.379a.788.788,0,0,1,.211.019l3.993,1.018V22.169A.3.3,0,0,0,31,21.881H23.164a.3.3,0,0,0-.288.288v2.246L26.869,23.4A.787.787,0,0,1,27.08,23.379Zm3.014-3.091A.3.3,0,0,0,29.806,20H24.354a.3.3,0,0,0-.288.288v1.018h6.028Z" transform="translate(667.379 463.833)"/></g></svg>