<svg id="Group_867" data-name="Group 867" xmlns="http://www.w3.org/2000/svg" width="13.527" height="13.527" viewBox="0 0 13.527 13.527">
  <path id="Path_1050" data-name="Path 1050" d="M21.044,56H8.483A.483.483,0,0,0,8,56.483v4.831a.483.483,0,0,0,.483.483H21.044a.483.483,0,0,0,.483-.483V56.483A.483.483,0,0,0,21.044,56ZM10.9,59.865a.483.483,0,0,1-.966,0V57.932a.483.483,0,1,1,.966,0Zm2.9,0a.483.483,0,0,1-.966,0V57.932a.483.483,0,1,1,.966,0Zm2.9,0a.483.483,0,0,1-.966,0V57.932a.483.483,0,1,1,.966,0Zm2.9,0a.483.483,0,0,1-.966,0V57.932a.483.483,0,1,1,.966,0Z" transform="translate(-8 -48.27)" fill="#7f7f7f"/>
  <path id="Path_1051" data-name="Path 1051" d="M31.663,14.764H29.329l-2.021-.919-2.021.919H22.952l3.567-1.621a1.932,1.932,0,0,1-1.144-1.76.483.483,0,1,1,.966,0,.966.966,0,1,0,.966-.966.483.483,0,0,1-.483-.483V8.966h-.242a.242.242,0,0,1-.242-.242V8.242A.242.242,0,0,1,26.583,8h1.449a.242.242,0,0,1,.242.242v.483a.242.242,0,0,1-.242.242h-.242V9.51a1.93,1.93,0,0,1,.305,3.632Z" transform="translate(-20.543 -8)" fill="#7f7f7f"/>
</svg>
