<svg xmlns="http://www.w3.org/2000/svg" width="28" height="28" viewBox="0 0 28 28"><defs><style>.a{fill:none;}.b{fill:#f88d4a;}</style></defs><g transform="translate(-368 -77)"><rect class="a" width="28" height="28" transform="translate(368 77)"/><g transform="translate(329.174 -24.326)"><path class="b" d="M325.478,139.745h3.431l-1.125-2.1a1.217,1.217,0,0,0-1.076-.643H325v2.285A.475.475,0,0,0,325.478,139.745Z" transform="translate(-269.614 -25.043)"/><circle class="b" cx="1.461" cy="1.461" r="1.461" transform="translate(46.835 118.831)"/><path class="b" d="M318.572,322.32a1.461,1.461,0,1,0,1.461,1.461A1.461,1.461,0,0,0,318.572,322.32Z" transform="translate(-262.018 -203.489)"/><path class="b" d="M59.634,115.3H55.864a1.069,1.069,0,0,1-1.071-1.054v-2.81a.43.43,0,0,0-.445-.439H45.473a.454.454,0,0,0-.473.439v8.121a.465.465,0,0,0,.473.453h.788a2.054,2.054,0,0,1,4.07,0h4.188a2.054,2.054,0,0,1,4.07,0H60.18a.465.465,0,0,0,.473-.453v-2.545a1.233,1.233,0,0,0-.263-.75Z"/></g></g></svg>