<?xml version="1.0" encoding="UTF-8"?>
<svg xmlns="http://www.w3.org/2000/svg" xmlns:xlink="http://www.w3.org/1999/xlink" width="38pt" height="49pt" viewBox="0 0 38 49" version="1.1">
<g id="surface1">
<path style=" stroke:none;fill-rule:nonzero;fill:rgb(7.45098%,53.333333%,39.215686%);fill-opacity:1;" d="M 21.207031 30.640625 C 19.769531 32.011719 18.882812 33.144531 16.054688 33.765625 C 8.746094 35.4375 2.664062 28.011719 5.414062 20.742188 C 6.777344 17.117188 10.550781 13.234375 15.738281 15.113281 C 19.050781 16.324219 23.414062 20.847656 24.605469 23.242188 L 26.613281 19.015625 C 26.945312 17.257812 21.5 11.410156 17.261719 10 C 4.203125 5.625 -6.039062 25.800781 6.429688 36.347656 C 8.9375 38.644531 12.644531 39.089844 15.625 37.445312 C 18.089844 35.753906 20.027344 33.40625 21.214844 30.664062 "/>
<path style=" stroke:none;fill-rule:nonzero;fill:rgb(52.54902%,63.529412%,68.627451%);fill-opacity:1;" d="M 13.335938 39.234375 C 19.027344 42.015625 26.605469 32.730469 28.230469 28.082031 C 28.988281 28.527344 28.75 28.414062 29.488281 29.621094 L 32.625 34.84375 C 33.089844 34.15625 33.554688 33.058594 33.972656 32.253906 C 34.816406 30.609375 34.960938 30.820312 34.0625 29.125 C 30.824219 23.003906 28.800781 24.324219 32.453125 18.3125 C 33.910156 15.90625 34.925781 15.035156 37.777344 16.792969 C 37.703125 15.742188 37.550781 14.695312 37.324219 13.667969 C 37.113281 12.335938 37.257812 11.707031 36.070312 11.269531 C 29.457031 8.769531 27.28125 23.605469 21.371094 32.566406 C 19.398438 35.644531 17.433594 37.820312 13.335938 39.234375 "/>
</g>
</svg>
