<svg xmlns="http://www.w3.org/2000/svg" width="141.368" height="32.169" viewBox="0 0 141.368 32.169">
  <g id="Group_372" data-name="Group 372" transform="translate(-47.937 184.817)">
    <g id="Layer_2" data-name="Layer 2" transform="translate(47.934 -184.838)">
      <g id="Layer_1" data-name="Layer 1" transform="translate(0.003 0.021)">
        <path id="Path_1" data-name="Path 1" d="M21.569,22.542c-1.518,1.452-2.452,2.651-5.442,3.314-7.715,1.77-14.138-6.1-11.234-13.806,1.438-3.838,5.422-7.954,10.9-5.965,3.5,1.286,8.106,6.078,9.365,8.616l2.121-4.481c.351-1.862-5.4-8.06-9.876-9.551C3.613-3.97-7.2,17.412,5.966,28.587a8.363,8.363,0,0,0,9.71,1.167,16.847,16.847,0,0,0,5.9-7.185" transform="translate(-0.003 -0.021)" fill="#108763" fill-rule="evenodd"/>
        <path id="Path_2" data-name="Path 2" d="M20,32.513c6.012,2.949,14.012-6.893,15.728-11.818.8.471.55.351,1.326,1.63l3.314,5.534c.49-.729.981-1.889,1.425-2.744.888-1.743,1.041-1.518.093-3.314-3.42-6.489-5.554-5.09-1.7-11.46C41.727,7.79,42.8,6.869,45.809,8.731a22.966,22.966,0,0,0-.477-3.314c-.225-1.412-.073-2.075-1.326-2.539C37.021.228,34.727,15.949,28.484,25.447,26.4,28.708,24.328,31.015,20,32.513" transform="translate(-6.746 -0.885)" fill="#85a2af" fill-rule="evenodd"/>
      </g>
    </g>
    <path id="Path_1139" data-name="Path 1139" d="M8.7.281A7.181,7.181,0,0,1,3.041-2.074,9.272,9.272,0,0,1,.949-8.461a9.242,9.242,0,0,1,2.1-6.369A7.177,7.177,0,0,1,8.7-17.191a7.421,7.421,0,0,1,4.863,1.623,6.305,6.305,0,0,1,2.309,4.26h-2.6a4.374,4.374,0,0,0-1.6-2.607A4.67,4.67,0,0,0,8.7-14.895,4.448,4.448,0,0,0,5.01-13.143,7.369,7.369,0,0,0,3.633-8.461,7.4,7.4,0,0,0,5-3.756a4.467,4.467,0,0,0,3.7,1.74,4.97,4.97,0,0,0,2.959-.855,4.087,4.087,0,0,0,1.6-2.391h2.613a6.394,6.394,0,0,1-2.373,4.084A7.65,7.65,0,0,1,8.7.281ZM22.254-1.793A3.238,3.238,0,0,0,24.5-2.607a2.593,2.593,0,0,0,.908-2.01V-5.59L22.371-5.4a3.21,3.21,0,0,0-1.752.557A1.524,1.524,0,0,0,20-3.574a1.567,1.567,0,0,0,.615,1.295A2.562,2.562,0,0,0,22.254-1.793Zm-.7,2A4.247,4.247,0,0,1,18.592-.82,3.446,3.446,0,0,1,17.449-3.5a3.121,3.121,0,0,1,1.2-2.572,5.824,5.824,0,0,1,3.387-1.072l3.375-.2V-8.3a2.039,2.039,0,0,0-.656-1.611,2.648,2.648,0,0,0-1.816-.58,2.95,2.95,0,0,0-1.752.48,2.088,2.088,0,0,0-.85,1.324H17.941a3.7,3.7,0,0,1,1.477-2.789,5.673,5.673,0,0,1,3.609-1.078,5.42,5.42,0,0,1,3.568,1.1A3.638,3.638,0,0,1,27.926-8.5V0H25.5V-2.027h-.059A3.937,3.937,0,0,1,23.842-.4,4.563,4.563,0,0,1,21.551.211ZM36.8-12.527A4.641,4.641,0,0,1,40.57-10.8a7.08,7.08,0,0,1,1.418,4.641,7.145,7.145,0,0,1-1.406,4.646A4.577,4.577,0,0,1,36.844.211a4.493,4.493,0,0,1-2.326-.6,4,4,0,0,1-1.553-1.641h-.059V4.078H30.375V-12.328h2.449v2.121h.047a4.147,4.147,0,0,1,1.582-1.7A4.453,4.453,0,0,1,36.8-12.527ZM36.129-1.934a2.843,2.843,0,0,0,2.379-1.143,4.941,4.941,0,0,0,.879-3.088,4.946,4.946,0,0,0-.879-3.082,2.838,2.838,0,0,0-2.379-1.148,2.813,2.813,0,0,0-2.344,1.16,4.91,4.91,0,0,0-.891,3.07,4.927,4.927,0,0,0,.885,3.076A2.814,2.814,0,0,0,36.129-1.934Zm7.582-6.9a3.235,3.235,0,0,1,1.336-2.684,5.557,5.557,0,0,1,3.492-1.031,5.285,5.285,0,0,1,3.369,1.037,3.432,3.432,0,0,1,1.377,2.689H50.906a1.829,1.829,0,0,0-.738-1.324,2.774,2.774,0,0,0-1.7-.48,2.752,2.752,0,0,0-1.658.457,1.4,1.4,0,0,0-.627,1.184q0,1.125,1.887,1.594l2.074.48A5.649,5.649,0,0,1,52.787-5.7a2.866,2.866,0,0,1,.779,2.139A3.263,3.263,0,0,1,52.143-.82a6.055,6.055,0,0,1-3.7,1.055A5.7,5.7,0,0,1,44.912-.8a3.706,3.706,0,0,1-1.518-2.742H45.9a2,2,0,0,0,.832,1.365,3.139,3.139,0,0,0,1.828.475,3.217,3.217,0,0,0,1.8-.439,1.361,1.361,0,0,0,.662-1.189,1.2,1.2,0,0,0-.4-.949,3.37,3.37,0,0,0-1.359-.6l-2.2-.539Q43.711-6.223,43.711-8.836ZM59.848-1.793a3.238,3.238,0,0,0,2.244-.814A2.593,2.593,0,0,0,63-4.617V-5.59L59.965-5.4a3.21,3.21,0,0,0-1.752.557A1.524,1.524,0,0,0,57.6-3.574a1.567,1.567,0,0,0,.615,1.295A2.562,2.562,0,0,0,59.848-1.793Zm-.7,2A4.247,4.247,0,0,1,56.186-.82,3.446,3.446,0,0,1,55.043-3.5a3.121,3.121,0,0,1,1.2-2.572,5.824,5.824,0,0,1,3.387-1.072L63-7.348V-8.3a2.039,2.039,0,0,0-.656-1.611,2.648,2.648,0,0,0-1.816-.58,2.95,2.95,0,0,0-1.752.48,2.088,2.088,0,0,0-.85,1.324H55.535a3.7,3.7,0,0,1,1.477-2.789,5.673,5.673,0,0,1,3.609-1.078,5.42,5.42,0,0,1,3.568,1.1A3.638,3.638,0,0,1,65.52-8.5V0H63.094V-2.027h-.059A3.937,3.937,0,0,1,61.436-.4,4.563,4.563,0,0,1,59.145.211ZM78.492-12.328,74.074,0H71.355L66.914-12.328h2.7L72.7-2.473h.047l3.094-9.855Zm8.4,2.707a2.8,2.8,0,0,0-2.145-.891,2.906,2.906,0,0,0-2.18.9A3.544,3.544,0,0,0,81.609-7.3h6.164A3.436,3.436,0,0,0,86.895-9.621Zm.867,6h2.4A4.159,4.159,0,0,1,88.43-.844,5.863,5.863,0,0,1,84.855.234,5.473,5.473,0,0,1,80.6-1.471a6.623,6.623,0,0,1-1.553-4.635A6.832,6.832,0,0,1,80.6-10.781a5.251,5.251,0,0,1,4.154-1.77,5.178,5.178,0,0,1,4.055,1.67A6.457,6.457,0,0,1,90.3-6.4v.867H81.6v.152a3.656,3.656,0,0,0,.9,2.59,3.135,3.135,0,0,0,2.414.973,3.3,3.3,0,0,0,1.828-.492A2.379,2.379,0,0,0,87.762-3.621Z" transform="translate(99 -161)" fill="#707070"/>
  </g>
</svg>
