<svg xmlns="http://www.w3.org/2000/svg" width="24" height="24" viewBox="0 0 24 24"><defs><style>.a,.b,.c,.d{fill:none;}.c,.d{stroke:#30878e;stroke-width:1.5px;}.c{stroke-linecap:round;}.e,.f{stroke:none;}.f{fill:#30878e;}</style></defs><g transform="translate(0)"><rect class="a" width="24" height="24"/><g transform="translate(2.231 1)"><g class="b"><path class="e" d="M7.743,2.762a2,2,0,0,1,3.405,0l5.863,9.511a2,2,0,0,1-1.7,3.049H3.582a2,2,0,0,1-1.7-3.049Z"/><path class="f" d="M 9.445038795471191 3.311430931091309 C 9.340778350830078 3.311430931091309 9.146859169006348 3.342301368713379 9.0194091796875 3.549071311950684 L 3.156648635864258 13.06003093719482 C 3.022658348083496 13.27741146087646 3.092288970947266 13.47042083740234 3.145718574523926 13.56613159179688 C 3.199149131774902 13.66183090209961 3.326918601989746 13.82239151000977 3.58228874206543 13.82239151000977 L 15.30778884887695 13.82239151000977 C 15.56315898895264 13.82239151000977 15.69092845916748 13.66183090209961 15.74435901641846 13.56612110137939 C 15.79778861999512 13.47042083740234 15.86741828918457 13.27741146087646 15.73341846466064 13.06003093719482 L 9.870668411254883 3.549071311950684 C 9.743218421936035 3.342301368713379 9.549288749694824 3.311430931091309 9.445038795471191 3.311430931091309 M 9.445038795471191 1.811433792114258 C 10.10099601745605 1.811433792114258 10.75695419311523 2.128275871276855 11.14756870269775 2.761960983276367 L 17.01031875610352 12.27292060852051 C 17.83169937133789 13.60541152954102 16.87309837341309 15.32239151000977 15.30778884887695 15.32239151000977 L 3.58228874206543 15.32239151000977 C 2.016969680786133 15.32239151000977 1.058378219604492 13.60541152954102 1.879758834838867 12.27292060852051 L 7.742508888244629 2.761960983276367 C 8.133123397827148 2.128275871276855 8.789081573486328 1.811433792114258 9.445038795471191 1.811433792114258 Z"/></g><line class="c" x2="15.326" transform="translate(1.861 20.898)"/><line class="d" y2="5.946" transform="translate(4.093 14.797)"/><line class="d" y2="5.946" transform="translate(14.797 14.797)"/><line class="d" y2="5.946" transform="translate(9.524 14.797)"/></g></g></svg>