<svg xmlns="http://www.w3.org/2000/svg" width="24" height="24" viewBox="0 0 24 24"><defs><style>.a,.b,.c,.d{fill:none;}.b,.c,.d{stroke:#707070;}.b,.d{stroke-width:1.2px;}.d{stroke-linecap:round;}.e{stroke:none;}</style></defs><g transform="translate(-3707 -965)"><rect class="a" width="24" height="24" transform="translate(3707 965)"/><g class="b" transform="translate(3711 970)"><rect class="e" width="17" height="15" rx="3"/><rect class="a" x="0.6" y="0.6" width="15.8" height="13.8" rx="2.4"/></g><g class="c" transform="translate(3714 979)"><rect class="e" width="3" height="3"/><rect class="a" x="0.5" y="0.5" width="2" height="2"/></g><g class="c" transform="translate(3714 975)"><rect class="e" width="3" height="3"/><rect class="a" x="0.5" y="0.5" width="2" height="2"/></g><g class="c" transform="translate(3718 979)"><rect class="e" width="3" height="3"/><rect class="a" x="0.5" y="0.5" width="2" height="2"/></g><g class="c" transform="translate(3718 975)"><rect class="e" width="3" height="3"/><rect class="a" x="0.5" y="0.5" width="2" height="2"/></g><g class="c" transform="translate(3722 979)"><rect class="e" width="3" height="3"/><rect class="a" x="0.5" y="0.5" width="2" height="2"/></g><g class="c" transform="translate(3722 975)"><rect class="e" width="3" height="3"/><rect class="a" x="0.5" y="0.5" width="2" height="2"/></g><line class="d" y1="2" transform="translate(3715.5 968.5)"/><line class="d" y1="2" transform="translate(3723.5 968.5)"/></g></svg>