<svg xmlns="http://www.w3.org/2000/svg" width="28" height="28" viewBox="0 0 28 28"><defs><style>.a,.c{fill:none;}.b{fill:#7f7f7f;}.c{stroke:#7f7f7f;stroke-linecap:round;stroke-width:1.5px;stroke-dasharray:0 4;}</style></defs><g transform="translate(-4843 -3855)"><rect class="a" width="28" height="28" transform="translate(4843 3855)"/><g transform="translate(-1.355 -1.5)"><path class="b" d="M18.776,0a4.987,4.987,0,0,0-4.295,7.517,1.356,1.356,0,0,0,.063.127l3.276,5.571a1.108,1.108,0,0,0,1.909,0l3.279-5.571c.023-.043.044-.084.063-.127A4.987,4.987,0,0,0,18.776,0Zm0,6.955A2.065,2.065,0,1,1,20.84,4.891,2.065,2.065,0,0,1,18.776,6.955Z" transform="translate(4836.88 3862.301)"/><line class="c" x2="10.902" transform="translate(4855.309 3879.5)"/></g></g></svg>