<svg xmlns="http://www.w3.org/2000/svg" width="24" height="24" viewBox="0 0 24 24"><defs><style>.a,.b,.c{fill:none;}.b{stroke:#fff;stroke-width:1.5px;}.d,.e{stroke:none;}.e{fill:#fff;}</style></defs><g transform="translate(-5161 29)"><rect class="a" width="24" height="24" transform="translate(5161 -29)"/><g transform="translate(1.917 -4.134)"><g class="b" transform="translate(5165.491 -22)"><circle class="d" cx="5.593" cy="5.593" r="5.593"/><circle class="a" cx="5.593" cy="5.593" r="4.843"/></g></g><g transform="translate(1.917 5.866)"><g class="c" transform="translate(5165.491 -22)"><path class="d" d="M5.593,0a5.593,5.593,0,0,1,5.593,5.593c0,1.337-2.1,2.1-4.775,2.294C3.6,8.1,0,7.344,0,5.593A5.593,5.593,0,0,1,5.593,0Z"/><path class="e" d="M 5.59266471862793 1.500004291534424 C 3.364053249359131 1.500004291534424 1.545783996582031 3.290357112884521 1.500849723815918 5.508395195007324 C 1.587045669555664 5.596195697784424 1.885178565979004 5.841872215270996 2.686964988708496 6.072113990783691 C 3.47435474395752 6.298233985900879 4.457444667816162 6.422754287719727 5.455144882202148 6.422754287719727 C 5.741354942321777 6.422754287719727 6.024074554443359 6.412234306335449 6.298874855041504 6.391214370727539 C 8.393984794616699 6.235784530639648 9.441421508789063 5.752580642700195 9.684379577636719 5.504042148590088 C 9.637066841125488 3.288094043731689 7.819750785827637 1.500004291534424 5.59266471862793 1.500004291534424 M 5.59266471862793 3.814697265625e-06 C 8.681405067443848 3.814697265625e-06 11.18532466888428 2.503924369812012 11.18532466888428 5.592664241790771 C 11.18532466888428 6.930084228515625 9.088224411010742 7.688404083251953 6.409844875335693 7.887104034423828 C 6.099330902099609 7.910851955413818 5.778824329376221 7.922755718231201 5.455144882202148 7.922755718231201 C 2.845660209655762 7.922755718231201 -5.7220458984375e-06 7.150723457336426 -5.7220458984375e-06 5.592664241790771 C -5.7220458984375e-06 2.503924369812012 2.503924369812012 3.814697265625e-06 5.59266471862793 3.814697265625e-06 Z"/></g></g></g></svg>