<svg xmlns="http://www.w3.org/2000/svg" width="24" height="24" viewBox="0 0 24 24"><defs><style>.a,.b{fill:none;}.b,.c,.d{stroke:#707070;}.b,.c{stroke-width:1.2px;}.c{fill:#f5f5f5;}.d{fill:#fff;}.e{stroke:none;}</style></defs><g transform="translate(-5437 -4210)"><rect class="a" width="24" height="24" transform="translate(5437 4210)"/><g transform="translate(-1.738 -1.938)"><g class="b" transform="translate(5442.357 4218.021)"><rect class="e" width="16.761" height="10.476" rx="2"/><rect class="a" x="-0.6" y="-0.6" width="17.961" height="11.676" rx="2.6"/></g><g class="c" transform="translate(5446.547 4224.307)"><path class="e" d="M0,0H8.381a0,0,0,0,1,0,0V7.381a1,1,0,0,1-1,1H1a1,1,0,0,1-1-1V0A0,0,0,0,1,0,0Z"/><path class="a" d="M0-.6H8.381a.6.6,0,0,1,.6.6V7.381a1.6,1.6,0,0,1-1.6,1.6H1a1.6,1.6,0,0,1-1.6-1.6V0A.6.6,0,0,1,0-.6Z"/></g><g class="d" transform="translate(5444.43 4214)"><rect class="e" width="12.616" height="3.785" rx="1"/><rect class="a" x="0.5" y="0.5" width="11.616" height="2.785" rx="0.5"/></g></g></g></svg>